<?xml version="1.0" encoding="utf-8"?>
<!-- Generator: Adobe Illustrator 21.1.0, SVG Export Plug-In . SVG Version: 6.00 Build 0)  -->
<svg version="1.1" id="Layer_2" xmlns="http://www.w3.org/2000/svg" xmlns:xlink="http://www.w3.org/1999/xlink" x="0px" y="0px"
	 viewBox="0 0 58 57" width="58" height="57" enable-background="new 0 0 58 57" xml:space="preserve" fill="#ffffff">
<g>
	<path d="M29.5,8.8V0.4C29.5,0.2,29.3,0,29,0c-0.2,0-0.4,0.2-0.4,0.4v8.4c0.1,0,0.3,0,0.4,0C29.2,8.8,29.3,8.8,29.5,8.8z"/>
	<path d="M18.8,11.7c0.2-0.1,0.5-0.3,0.7-0.4L15.3,4c-0.1-0.2-0.4-0.3-0.6-0.1c-0.2,0.1-0.3,0.4-0.1,0.6L18.8,11.7z"/>
	<path d="M4.3,14.2c-0.1,0.2,0,0.4,0.1,0.6l7.2,4.2c0.1-0.2,0.3-0.5,0.4-0.7l-7.2-4.2C4.7,14,4.4,14,4.3,14.2z"/>
	<path d="M43.6,3.5c-0.2-0.1-0.4,0-0.6,0.1l-4.4,7.6c0.2,0.1,0.5,0.3,0.7,0.4l4.4-7.6C43.9,3.9,43.8,3.6,43.6,3.5z"/>
	<path d="M54,14.6c0.2-0.1,0.3-0.4,0.1-0.6c-0.1-0.2-0.4-0.3-0.6-0.1L46,18.3c0.1,0.2,0.3,0.5,0.4,0.7L54,14.6z"/>
	<path d="M9.2,28.6c0-0.1,0-0.3,0-0.4H0.4c-0.2,0-0.4,0.2-0.4,0.4C0,28.8,0.2,29,0.4,29h8.8C9.2,28.9,9.2,28.7,9.2,28.6z"/>
	<path d="M57.7,28.2h-8.8c0,0.1,0,0.3,0,0.4s0,0.3,0,0.4h8.8c0.2,0,0.4-0.2,0.4-0.4C58.1,28.4,57.9,28.2,57.7,28.2z"/>
	<path d="M53.6,42.4l-7.2-4.2c-0.1,0.2-0.3,0.5-0.4,0.7l7.2,4.2c0.1,0,0.1,0.1,0.2,0.1c0.1,0,0.3-0.1,0.4-0.2
		C53.9,42.8,53.8,42.5,53.6,42.4z"/>
	<path d="M4.1,42.6c-0.2,0.1-0.3,0.4-0.1,0.6c0.1,0.1,0.2,0.2,0.4,0.2c0.1,0,0.1,0,0.2-0.1l7.6-4.4c-0.1-0.2-0.3-0.5-0.4-0.7
		L4.1,42.6z"/>
	<path d="M39.3,45.6c-0.2,0.1-0.5,0.3-0.7,0.4l4.2,7.3c0.1,0.1,0.2,0.2,0.4,0.2c0.1,0,0.1,0,0.2-0.1c0.2-0.1,0.3-0.4,0.1-0.6
		L39.3,45.6z"/>
	<path d="M14.3,53.2c-0.1,0.2,0,0.4,0.1,0.6c0.1,0,0.1,0.1,0.2,0.1c0.1,0,0.3-0.1,0.4-0.2l4.4-7.6c-0.2-0.1-0.5-0.3-0.7-0.4
		L14.3,53.2z"/>
	<path d="M28.6,48.4v8.4c0,0.2,0.2,0.4,0.4,0.4c0.2,0,0.4-0.2,0.4-0.4v-8.4c-0.1,0-0.3,0-0.4,0C28.9,48.4,28.8,48.4,28.6,48.4z"/>
	<path d="M42.9,21.3c0.3-0.2,0.4-0.5,0.2-0.8c-0.2-0.3-0.5-0.4-0.8-0.2L30.7,27l0,0c-0.4-0.4-1-0.7-1.6-0.7c-0.6,0-1.2,0.3-1.6,0.7
		l-8.3-4.8c-0.3-0.2-0.7-0.1-0.8,0.2c-0.2,0.3-0.1,0.7,0.2,0.8l8.3,4.8c0,0.2-0.1,0.4-0.1,0.6c0,1.3,1,2.3,2.3,2.3
		c1.3,0,2.3-1,2.3-2.3c0-0.2,0-0.4-0.1-0.6L42.9,21.3z M30.9,27.2C30.9,27.2,30.9,27.2,30.9,27.2C30.9,27.2,30.9,27.2,30.9,27.2z
		 M31.1,27.4C31,27.4,31,27.4,31.1,27.4C31,27.4,31,27.4,31.1,27.4z M27,27.4C27,27.4,27,27.4,27,27.4C27,27.4,27,27.4,27,27.4z
		 M27.2,27.2C27.2,27.2,27.2,27.2,27.2,27.2C27.2,27.2,27.2,27.2,27.2,27.2z M29,29.7c-0.6,0-1.1-0.5-1.1-1.1s0.5-1.1,1.1-1.1
		c0.6,0,1.1,0.5,1.1,1.1S29.6,29.7,29,29.7z"/>
</g>
</svg>
