<?xml version="1.0" encoding="utf-8"?>
<!-- Generator: Adobe Illustrator 21.1.0, SVG Export Plug-In . SVG Version: 6.00 Build 0)  -->
<svg version="1.1" id="Layer_1" xmlns="http://www.w3.org/2000/svg" xmlns:xlink="http://www.w3.org/1999/xlink" x="0px" y="0px"
	 viewBox="0 0 15 17" width="15" height="17" enable-background="new 0 0 15 17" xml:space="preserve">
<path id="login-lock" fill="#000000" d="M13,5.5c0-3-2.5-5.5-5.5-5.5c0,0,0,0-0.1,0C4.4,0,2,2.3,1.9,5.3c0,0.1,0,0.1,0,0.2H1.3
	C0.8,5.3,0.2,5.6,0.1,6.2c0,0.1,0,0.3,0,0.4v9c-0.2,0.5,0.1,1.1,0.6,1.4C0.8,17,1,17,1.2,17h12.6c0.7-0.1,1.3-0.7,1.2-1.4V7
	c0.1-0.7-0.4-1.4-1.1-1.5c0,0-0.1,0-0.1,0L13,5.5z M11.8,5.4c-0.1-2.4-2-4.2-4.4-4.2C5.1,1.4,3.3,3.2,3.2,5.4H11.8z M7.2,7.5
	c1.1,0,2,0.9,2,2.1c0,0.8-0.5,1.6-1.3,1.9c-0.1,0,0.7,3.5,0.7,3.5l-2.6,0c0.3-1.2,0.5-2.3,0.6-3.5c-0.8-0.3-1.3-1.1-1.3-1.9
	C5.2,8.4,6.1,7.5,7.2,7.5C7.2,7.5,7.2,7.5,7.2,7.5L7.2,7.5z"/>
</svg>
