<?xml version="1.0" encoding="utf-8"?>
<!-- Generator: Adobe Illustrator 21.1.0, SVG Export Plug-In . SVG Version: 6.00 Build 0)  -->
<svg version="1.1" id="Layer_1" xmlns="http://www.w3.org/2000/svg" xmlns:xlink="http://www.w3.org/1999/xlink" x="0px" y="0px" width="36" height="36" viewBox="0 0 36 36" enable-background="new 0 0 35.8 35.8" xml:space="preserve">
<path fill="#FFFFFF" d="M33.6,0H2.2C1,0,0,1,0,2.2v31.4c0,1.2,1,2.2,2.2,2.2h31.4c1.2,0,2.2-1,2.2-2.2V2.2C35.8,1,34.8,0,33.6,0z
	 M13.4,17.9c0,0,0.4-4.5,4.5-4.5s4.5,4.5,4.5,4.5s0.1,4.5-4.5,4.5S13.4,17.9,13.4,17.9z M31.4,31.4H4.5V15.7h4.8
	C9.1,16.4,9,17.1,9,17.9c0,4.9,4,9,9,9s9-4,9-9c0-0.8-0.1-1.5-0.3-2.2h4.8V31.4z M31.4,11.2h-6.7V4.5h6.7V11.2z"/>
</svg>
